<svg width="476" height="129" viewBox="0 0 476 129" fill="none" xmlns="http://www.w3.org/2000/svg">
<path d="M277.255 80.7305L292.831 23.7969H313.886L287.567 102H266.942L240.839 23.7969H261.732L277.255 80.7305ZM344.394 23.7969L361.85 78.2061L379.252 23.7969H404.066V102H385.16V83.7383L386.986 46.3555L368.08 102H355.619L336.659 46.3018L338.485 83.7383V102H319.633V23.7969H344.394ZM453.135 81.2139C453.135 78.4567 452.15 76.3083 450.18 74.7686C448.247 73.2288 444.827 71.6354 439.922 69.9883C435.016 68.3411 431.006 66.7477 427.89 65.208C417.757 60.2308 412.69 53.3916 412.69 44.6904C412.69 40.3577 413.943 36.5443 416.45 33.25C418.992 29.9199 422.573 27.3418 427.192 25.5156C431.811 23.6536 437.003 22.7227 442.768 22.7227C448.39 22.7227 453.421 23.7253 457.861 25.7305C462.337 27.7357 465.81 30.6003 468.281 34.3242C470.752 38.0124 471.987 42.2376 471.987 47H453.188C453.188 43.8132 452.204 41.3424 450.234 39.5879C448.301 37.8333 445.669 36.9561 442.339 36.9561C438.973 36.9561 436.305 37.708 434.336 39.2119C432.402 40.68 431.435 42.5599 431.435 44.8516C431.435 46.8568 432.51 48.6829 434.658 50.3301C436.806 51.9414 440.584 53.6243 445.991 55.3789C451.398 57.0977 455.838 58.9596 459.311 60.9648C467.762 65.8346 471.987 72.5485 471.987 81.1064C471.987 87.9456 469.409 93.3167 464.253 97.2197C459.096 101.123 452.025 103.074 443.037 103.074C436.699 103.074 430.952 101.946 425.796 99.6904C420.675 97.3988 416.808 94.2835 414.194 90.3447C411.616 86.3701 410.327 81.8047 410.327 76.6484H429.233C429.233 80.8379 430.307 83.9352 432.456 85.9404C434.64 87.9098 438.167 88.8945 443.037 88.8945C446.152 88.8945 448.605 88.2321 450.395 86.9072C452.221 85.5465 453.135 83.6488 453.135 81.2139Z" fill="#2378FF"/>
<path d="M72.1338 64.5098C72.1338 72.1367 70.7194 78.8864 67.8906 84.7588C65.0618 90.6312 61.0335 95.1608 55.8057 98.3477C50.6136 101.499 44.6875 103.074 38.0273 103.074C31.3672 103.074 25.459 101.552 20.3027 98.5088C15.1465 95.4294 11.1182 91.043 8.21777 85.3496C5.35319 79.6562 3.84928 73.1214 3.70605 65.7451V61.3408C3.70605 53.6781 5.10254 46.9284 7.89551 41.0918C10.7243 35.2194 14.7526 30.6898 19.9805 27.5029C25.2441 24.3161 31.224 22.7227 37.9199 22.7227C44.5443 22.7227 50.4525 24.2982 55.6445 27.4492C60.8366 30.6003 64.8649 35.0941 67.7295 40.9307C70.6299 46.7314 72.098 53.3916 72.1338 60.9111V64.5098ZM52.959 61.2334C52.959 53.4632 51.652 47.5729 49.0381 43.5625C46.46 39.5163 42.7539 37.4932 37.9199 37.4932C28.4668 37.4932 23.4717 44.583 22.9346 58.7627L22.8809 64.5098C22.8809 72.1725 24.152 78.0628 26.6943 82.1807C29.2367 86.2985 33.0143 88.3574 38.0273 88.3574C42.7897 88.3574 46.46 86.3343 49.0381 82.2881C51.6162 78.2419 52.9232 72.4232 52.959 64.832V61.2334ZM130.026 73.3721C130.026 82.3955 127.985 89.6107 123.903 95.0176C119.856 100.389 114.378 103.074 107.467 103.074C102.132 103.074 97.7453 101.123 94.3078 97.2197V124.344H76.2072V43.8848H93.1262L93.6633 49.2559C97.1366 44.959 101.702 42.8105 107.36 42.8105C114.521 42.8105 120.089 45.4603 124.064 50.7598C128.038 56.0234 130.026 63.2744 130.026 72.5127V73.3721ZM111.925 72.2441C111.925 61.9316 108.917 56.7754 102.902 56.7754C98.6047 56.7754 95.7401 58.3151 94.3078 61.3945V84.2754C95.8833 87.498 98.7837 89.1094 103.009 89.1094C108.774 89.1094 111.746 84.1322 111.925 74.1777V72.2441ZM163.423 103.074C154.507 103.074 147.292 100.424 141.778 95.125C136.263 89.7897 133.506 82.861 133.506 74.3389V72.835C133.506 66.891 134.598 61.6452 136.782 57.0977C139.002 52.5501 142.225 49.041 146.45 46.5703C150.676 44.0638 155.689 42.8105 161.489 42.8105C169.654 42.8105 176.099 45.3529 180.825 50.4375C185.552 55.4863 187.915 62.5404 187.915 71.5996V78.6357H151.929C152.573 81.8942 153.988 84.4544 156.172 86.3164C158.356 88.1784 161.185 89.1094 164.658 89.1094C170.388 89.1094 174.863 87.1042 178.086 83.0938L186.358 92.8691C184.102 95.9844 180.897 98.473 176.743 100.335C172.626 102.161 168.185 103.074 163.423 103.074ZM161.382 56.7754C156.083 56.7754 152.932 60.2845 151.929 67.3027H170.191V65.9062C170.262 63.0059 169.528 60.7679 167.988 59.1924C166.449 57.5811 164.247 56.7754 161.382 56.7754ZM209.12 43.8848L209.711 50.7061C213.722 45.4424 219.254 42.8105 226.308 42.8105C232.359 42.8105 236.871 44.6188 239.843 48.2354C242.851 51.8519 244.408 57.2946 244.516 64.5635V102H226.362V65.3154C226.362 62.3792 225.771 60.2308 224.589 58.8701C223.407 57.4736 221.259 56.7754 218.144 56.7754C214.599 56.7754 211.967 58.1719 210.248 60.9648V102H192.148V43.8848H209.12Z" fill="#2378FF"/>
<path d="M137 51C144.932 37 143.188 21.6035 140.051 16.0001C150.5 18.7769 172.593 36.2899 182 47.1957C176.375 43.6507 156.125 30.0832 137 51Z" fill="#2378FF"/>
</svg>
