<svg xmlns="http://www.w3.org/2000/svg" width="900" height="650" viewBox="0 0 900 650">
  <defs>
    <linearGradient id="bg4" x1="0%" y1="0%" x2="100%" y2="100%">
      <stop offset="0%" style="stop-color:#1a1a2e"/>
      <stop offset="100%" style="stop-color:#2d1b4e"/>
    </linearGradient>
  </defs>
  <rect width="900" height="650" fill="url(#bg4)"/>
  <!-- Browser window -->
  <rect x="120" y="70" width="660" height="430" rx="10" fill="#1e1e3a" stroke="#9b59b6" stroke-width="1.5"/>
  <rect x="120" y="70" width="660" height="38" rx="10" fill="#2c3e50"/>
  <circle cx="148" cy="89" r="6" fill="#e74c3c" opacity="0.8"/>
  <circle cx="166" cy="89" r="6" fill="#f39c12" opacity="0.8"/>
  <circle cx="184" cy="89" r="6" fill="#2ecc71" opacity="0.8"/>
  <rect x="250" y="80" width="350" height="18" rx="9" fill="#1a1a2e"/>
  <text x="425" y="93" font-family="Lato, sans-serif" font-size="9" fill="#9b59b6" text-anchor="middle">luckytailor.in</text>
  <!-- Hero section -->
  <rect x="140" y="120" width="620" height="160" rx="6" fill="#9b59b6" opacity="0.1"/>
  <text x="450" y="180" font-family="Montserrat, sans-serif" font-size="24" fill="#9b59b6" text-anchor="middle" font-weight="700">Lucky Tailor</text>
  <text x="450" y="210" font-family="Lato, sans-serif" font-size="12" fill="#fff" text-anchor="middle" opacity="0.5">Premium Tailoring Services</text>
  <rect x="390" y="230" width="120" height="30" rx="15" fill="#9b59b6" opacity="0.4"/>
  <text x="450" y="250" font-family="Lato, sans-serif" font-size="11" fill="#fff" text-anchor="middle">Our Services</text>
  <!-- Service cards -->
  <rect x="155" y="300" width="180" height="100" rx="8" fill="#2c3e50" stroke="#e74c3c" stroke-width="1"/>
  <!-- Scissors icon -->
  <circle cx="245" cy="330" r="18" fill="#e74c3c" opacity="0.15"/>
  <text x="245" y="335" font-family="sans-serif" font-size="16" fill="#e74c3c" text-anchor="middle">&#9986;</text>
  <rect x="170" y="360" width="100" height="5" rx="3" fill="#fff" opacity="0.2"/>
  <rect x="170" y="372" width="140" height="5" rx="3" fill="#fff" opacity="0.1"/>
  <rect x="170" y="384" width="80" height="5" rx="3" fill="#fff" opacity="0.1"/>
  <rect x="360" y="300" width="180" height="100" rx="8" fill="#2c3e50" stroke="#f39c12" stroke-width="1"/>
  <circle cx="450" cy="330" r="18" fill="#f39c12" opacity="0.15"/>
  <text x="450" y="336" font-family="Lato, sans-serif" font-size="10" fill="#f39c12" text-anchor="middle" font-weight="700">OFFER</text>
  <rect x="375" y="360" width="100" height="5" rx="3" fill="#fff" opacity="0.2"/>
  <rect x="375" y="372" width="140" height="5" rx="3" fill="#fff" opacity="0.1"/>
  <rect x="375" y="384" width="80" height="5" rx="3" fill="#fff" opacity="0.1"/>
  <rect x="565" y="300" width="180" height="100" rx="8" fill="#2c3e50" stroke="#1abc9c" stroke-width="1"/>
  <circle cx="655" cy="330" r="18" fill="#1abc9c" opacity="0.15"/>
  <text x="655" y="336" font-family="Lato, sans-serif" font-size="10" fill="#1abc9c" text-anchor="middle" font-weight="700">CALL</text>
  <rect x="580" y="360" width="100" height="5" rx="3" fill="#fff" opacity="0.2"/>
  <rect x="580" y="372" width="140" height="5" rx="3" fill="#fff" opacity="0.1"/>
  <rect x="580" y="384" width="80" height="5" rx="3" fill="#fff" opacity="0.1"/>
  <!-- Footer -->
  <rect x="140" y="420" width="620" height="60" fill="#1a1a30" opacity="0.5"/>
  <rect x="200" y="440" width="80" height="5" rx="3" fill="#fff" opacity="0.1"/>
  <rect x="400" y="440" width="100" height="5" rx="3" fill="#fff" opacity="0.1"/>
  <rect x="620" y="440" width="80" height="5" rx="3" fill="#fff" opacity="0.1"/>
  <!-- Title -->
  <text x="450" y="555" font-family="Montserrat, Arial, sans-serif" font-size="28" fill="#ffffff" text-anchor="middle" font-weight="700">Lucky Tailor</text>
  <text x="450" y="590" font-family="Lato, Arial, sans-serif" font-size="16" fill="#1abc9c" text-anchor="middle">HTML · CSS · JavaScript</text>
</svg>