<svg xmlns="http://www.w3.org/2000/svg" width="900" height="650" viewBox="0 0 900 650">
  <defs>
    <linearGradient id="bg13" x1="0%" y1="0%" x2="100%" y2="100%">
      <stop offset="0%" style="stop-color:#0f0c29"/>
      <stop offset="50%" style="stop-color:#302b63"/>
      <stop offset="100%" style="stop-color:#24243e"/>
    </linearGradient>
  </defs>
  <rect width="900" height="650" fill="url(#bg13)"/>
  <!-- Dashboard frame -->
  <rect x="120" y="80" width="660" height="420" rx="12" fill="#1a1a3e" stroke="#3498db" stroke-width="1.5" opacity="0.8"/>
  <!-- Top bar -->
  <rect x="120" y="80" width="660" height="45" rx="12" fill="#3498db" opacity="0.3"/>
  <circle cx="150" cy="102" r="7" fill="#e74c3c" opacity="0.8"/>
  <circle cx="172" cy="102" r="7" fill="#f39c12" opacity="0.8"/>
  <circle cx="194" cy="102" r="7" fill="#2ecc71" opacity="0.8"/>
  <!-- Sidebar -->
  <rect x="120" y="125" width="140" height="375" fill="#151530" opacity="0.6"/>
  <rect x="140" y="150" width="100" height="12" rx="6" fill="#3498db" opacity="0.4"/>
  <rect x="140" y="180" width="80" height="12" rx="6" fill="#ffffff" opacity="0.15"/>
  <rect x="140" y="210" width="90" height="12" rx="6" fill="#ffffff" opacity="0.15"/>
  <rect x="140" y="240" width="70" height="12" rx="6" fill="#ffffff" opacity="0.15"/>
  <rect x="140" y="270" width="85" height="12" rx="6" fill="#ffffff" opacity="0.15"/>
  <!-- Metric cards -->
  <rect x="285" y="145" width="150" height="80" rx="8" fill="#1abc9c" opacity="0.2" stroke="#1abc9c" stroke-width="1"/>
  <text x="360" y="175" font-family="Montserrat, sans-serif" font-size="22" fill="#1abc9c" text-anchor="middle" font-weight="700">2,847</text>
  <text x="360" y="200" font-family="Lato, sans-serif" font-size="12" fill="#ffffff" text-anchor="middle" opacity="0.6">Requests</text>
  <rect x="460" y="145" width="150" height="80" rx="8" fill="#e74c3c" opacity="0.2" stroke="#e74c3c" stroke-width="1"/>
  <text x="535" y="175" font-family="Montserrat, sans-serif" font-size="22" fill="#e74c3c" text-anchor="middle" font-weight="700">12</text>
  <text x="535" y="200" font-family="Lato, sans-serif" font-size="12" fill="#ffffff" text-anchor="middle" opacity="0.6">Errors</text>
  <rect x="635" y="145" width="120" height="80" rx="8" fill="#f39c12" opacity="0.2" stroke="#f39c12" stroke-width="1"/>
  <text x="695" y="175" font-family="Montserrat, sans-serif" font-size="22" fill="#f39c12" text-anchor="middle" font-weight="700">99.2%</text>
  <text x="695" y="200" font-family="Lato, sans-serif" font-size="12" fill="#ffffff" text-anchor="middle" opacity="0.6">Uptime</text>
  <!-- Line chart -->
  <polyline points="290,380 340,350 390,365 440,310 490,330 540,290 590,300 640,270 690,250 740,260" fill="none" stroke="#1abc9c" stroke-width="2.5" opacity="0.8"/>
  <polyline points="290,380 340,350 390,365 440,310 490,330 540,290 590,300 640,270 690,250 740,260" fill="none" stroke="#1abc9c" stroke-width="12" opacity="0.08"/>
  <!-- Bar chart -->
  <rect x="300" y="410" width="25" height="60" rx="3" fill="#3498db" opacity="0.6"/>
  <rect x="340" y="390" width="25" height="80" rx="3" fill="#3498db" opacity="0.7"/>
  <rect x="380" y="420" width="25" height="50" rx="3" fill="#3498db" opacity="0.5"/>
  <rect x="420" y="380" width="25" height="90" rx="3" fill="#3498db" opacity="0.8"/>
  <rect x="460" y="400" width="25" height="70" rx="3" fill="#3498db" opacity="0.6"/>
  <rect x="500" y="370" width="25" height="100" rx="3" fill="#1abc9c" opacity="0.8"/>
  <rect x="540" y="395" width="25" height="75" rx="3" fill="#3498db" opacity="0.65"/>
  <!-- Title -->
  <text x="450" y="555" font-family="Montserrat, Arial, sans-serif" font-size="28" fill="#ffffff" text-anchor="middle" font-weight="700">Application Metrics Tool</text>
  <text x="450" y="590" font-family="Lato, Arial, sans-serif" font-size="16" fill="#1abc9c" text-anchor="middle">Python · Streamlit · Database APIs</text>
</svg>