<svg xmlns="http://www.w3.org/2000/svg" width="900" height="650" viewBox="0 0 900 650">
  <defs>
    <linearGradient id="bg16" x1="0%" y1="0%" x2="100%" y2="100%">
      <stop offset="0%" style="stop-color:#0f0c29"/>
      <stop offset="50%" style="stop-color:#1a1a3e"/>
      <stop offset="100%" style="stop-color:#24243e"/>
    </linearGradient>
  </defs>
  <rect width="900" height="650" fill="url(#bg16)"/>
  <!-- Neural network / brain illustration -->
  <!-- Outer ring -->
  <circle cx="450" cy="280" r="180" fill="none" stroke="#9b59b6" stroke-width="1" opacity="0.3"/>
  <circle cx="450" cy="280" r="130" fill="none" stroke="#3498db" stroke-width="1" opacity="0.3"/>
  <!-- Document nodes (left - input) -->
  <rect x="100" y="160" width="80" height="100" rx="6" fill="#2c3e50" stroke="#e74c3c" stroke-width="1.5"/>
  <rect x="112" y="175" width="56" height="4" rx="2" fill="#e74c3c" opacity="0.5"/>
  <rect x="112" y="185" width="50" height="4" rx="2" fill="#fff" opacity="0.2"/>
  <rect x="112" y="195" width="56" height="4" rx="2" fill="#fff" opacity="0.2"/>
  <rect x="112" y="205" width="40" height="4" rx="2" fill="#fff" opacity="0.2"/>
  <rect x="112" y="215" width="56" height="4" rx="2" fill="#fff" opacity="0.2"/>
  <rect x="112" y="225" width="48" height="4" rx="2" fill="#fff" opacity="0.2"/>
  <rect x="112" y="240" width="30" height="8" rx="2" fill="#e74c3c" opacity="0.4"/>
  <rect x="100" y="300" width="80" height="100" rx="6" fill="#2c3e50" stroke="#f39c12" stroke-width="1.5"/>
  <rect x="112" y="315" width="56" height="4" rx="2" fill="#f39c12" opacity="0.5"/>
  <rect x="112" y="325" width="50" height="4" rx="2" fill="#fff" opacity="0.2"/>
  <rect x="112" y="335" width="56" height="4" rx="2" fill="#fff" opacity="0.2"/>
  <rect x="112" y="345" width="40" height="4" rx="2" fill="#fff" opacity="0.2"/>
  <rect x="112" y="355" width="56" height="4" rx="2" fill="#fff" opacity="0.2"/>
  <rect x="112" y="370" width="30" height="8" rx="2" fill="#f39c12" opacity="0.4"/>
  <!-- Connection lines to brain -->
  <line x1="180" y1="210" x2="320" y2="250" stroke="#e74c3c" stroke-width="1" opacity="0.4"/>
  <line x1="180" y1="350" x2="320" y2="310" stroke="#f39c12" stroke-width="1" opacity="0.4"/>
  <!-- Brain/AI center nodes -->
  <circle cx="380" cy="230" r="15" fill="#9b59b6" opacity="0.3" stroke="#9b59b6" stroke-width="1"/>
  <circle cx="450" cy="200" r="18" fill="#3498db" opacity="0.3" stroke="#3498db" stroke-width="1"/>
  <circle cx="520" cy="230" r="15" fill="#9b59b6" opacity="0.3" stroke="#9b59b6" stroke-width="1"/>
  <circle cx="360" cy="290" r="12" fill="#1abc9c" opacity="0.3" stroke="#1abc9c" stroke-width="1"/>
  <circle cx="450" cy="280" r="25" fill="#1abc9c" opacity="0.2" stroke="#1abc9c" stroke-width="2"/>
  <circle cx="540" cy="290" r="12" fill="#1abc9c" opacity="0.3" stroke="#1abc9c" stroke-width="1"/>
  <circle cx="400" cy="350" r="15" fill="#3498db" opacity="0.3" stroke="#3498db" stroke-width="1"/>
  <circle cx="500" cy="350" r="15" fill="#3498db" opacity="0.3" stroke="#3498db" stroke-width="1"/>
  <circle cx="450" cy="380" r="12" fill="#9b59b6" opacity="0.3" stroke="#9b59b6" stroke-width="1"/>
  <!-- Brain connections -->
  <line x1="380" y1="230" x2="450" y2="200" stroke="#9b59b6" stroke-width="1" opacity="0.3"/>
  <line x1="450" y1="200" x2="520" y2="230" stroke="#3498db" stroke-width="1" opacity="0.3"/>
  <line x1="380" y1="230" x2="360" y2="290" stroke="#9b59b6" stroke-width="1" opacity="0.3"/>
  <line x1="520" y1="230" x2="540" y2="290" stroke="#9b59b6" stroke-width="1" opacity="0.3"/>
  <line x1="360" y1="290" x2="450" y2="280" stroke="#1abc9c" stroke-width="1" opacity="0.4"/>
  <line x1="540" y1="290" x2="450" y2="280" stroke="#1abc9c" stroke-width="1" opacity="0.4"/>
  <line x1="450" y1="280" x2="400" y2="350" stroke="#1abc9c" stroke-width="1" opacity="0.3"/>
  <line x1="450" y1="280" x2="500" y2="350" stroke="#1abc9c" stroke-width="1" opacity="0.3"/>
  <line x1="400" y1="350" x2="450" y2="380" stroke="#3498db" stroke-width="1" opacity="0.3"/>
  <line x1="500" y1="350" x2="450" y2="380" stroke="#3498db" stroke-width="1" opacity="0.3"/>
  <!-- AI text in center -->
  <text x="450" y="287" font-family="Montserrat, sans-serif" font-size="18" fill="#1abc9c" text-anchor="middle" font-weight="700">AI</text>
  <!-- Output chat (right) -->
  <rect x="650" y="170" width="180" height="240" rx="10" fill="#2c3e50" stroke="#1abc9c" stroke-width="1.5"/>
  <!-- Chat bubbles -->
  <rect x="670" y="195" width="100" height="30" rx="12" fill="#3498db" opacity="0.6"/>
  <rect x="675" y="205" width="60" height="6" rx="3" fill="#fff" opacity="0.4"/>
  <rect x="700" y="245" width="110" height="40" rx="12" fill="#1abc9c" opacity="0.4"/>
  <rect x="710" y="255" width="70" height="5" rx="3" fill="#fff" opacity="0.4"/>
  <rect x="710" y="265" width="85" height="5" rx="3" fill="#fff" opacity="0.4"/>
  <rect x="670" y="305" width="90" height="30" rx="12" fill="#3498db" opacity="0.6"/>
  <rect x="675" y="315" width="55" height="6" rx="3" fill="#fff" opacity="0.4"/>
  <rect x="700" y="355" width="110" height="35" rx="12" fill="#1abc9c" opacity="0.4"/>
  <rect x="710" y="365" width="80" height="5" rx="3" fill="#fff" opacity="0.4"/>
  <rect x="710" y="375" width="60" height="5" rx="3" fill="#fff" opacity="0.4"/>
  <!-- Connection to chat -->
  <line x1="580" y1="280" x2="650" y2="280" stroke="#1abc9c" stroke-width="1.5" opacity="0.4"/>
  <polygon points="645,275 655,280 645,285" fill="#1abc9c" opacity="0.5"/>
  <!-- Vector DB icon (bottom) -->
  <ellipse cx="450" cy="440" rx="50" ry="15" fill="none" stroke="#9b59b6" stroke-width="1.5" opacity="0.5"/>
  <ellipse cx="450" cy="455" rx="50" ry="15" fill="none" stroke="#9b59b6" stroke-width="1.5" opacity="0.4"/>
  <ellipse cx="450" cy="470" rx="50" ry="15" fill="none" stroke="#9b59b6" stroke-width="1.5" opacity="0.3"/>
  <text x="450" y="445" font-family="Lato, sans-serif" font-size="11" fill="#9b59b6" text-anchor="middle" opacity="0.7">Chroma DB</text>
  <line x1="450" y1="400" x2="450" y2="425" stroke="#9b59b6" stroke-width="1" opacity="0.4" stroke-dasharray="4,3"/>
  <!-- Title -->
  <text x="450" y="540" font-family="Montserrat, Arial, sans-serif" font-size="28" fill="#ffffff" text-anchor="middle" font-weight="700">Agentic AI RAG System</text>
  <text x="450" y="575" font-family="Lato, Arial, sans-serif" font-size="16" fill="#1abc9c" text-anchor="middle">Chroma · Ollama 3.2 · DeepSeek R1 · LangChain</text>
</svg>