<svg xmlns="http://www.w3.org/2000/svg" width="900" height="650" viewBox="0 0 900 650">
  <defs>
    <linearGradient id="bg3" x1="0%" y1="0%" x2="100%" y2="100%">
      <stop offset="0%" style="stop-color:#1a1a2e"/>
      <stop offset="100%" style="stop-color:#0d3b2e"/>
    </linearGradient>
  </defs>
  <rect width="900" height="650" fill="url(#bg3)"/>
  <!-- Central hub -->
  <circle cx="450" cy="260" r="70" fill="#2ecc71" opacity="0.1" stroke="#2ecc71" stroke-width="2"/>
  <circle cx="450" cy="260" r="45" fill="#2ecc71" opacity="0.15"/>
  <!-- Bell/notification icon -->
  <path d="M440,245 L440,235 Q450,225 460,235 L460,245" fill="none" stroke="#2ecc71" stroke-width="2.5"/>
  <path d="M430,245 Q430,270 450,275 Q470,270 470,245" fill="none" stroke="#2ecc71" stroke-width="2.5"/>
  <circle cx="450" cy="280" r="4" fill="#2ecc71"/>
  <text x="450" y="300" font-family="Lato, sans-serif" font-size="10" fill="#2ecc71" text-anchor="middle">NOTIFY</text>
  <!-- Product box (top) -->
  <rect x="390" y="80" width="120" height="80" rx="8" fill="#2c3e50" stroke="#f39c12" stroke-width="1.5"/>
  <rect x="410" y="95" width="80" height="12" rx="3" fill="#f39c12" opacity="0.4"/>
  <text x="450" y="104" font-family="Lato, sans-serif" font-size="8" fill="#fff" text-anchor="middle">NEW PRODUCT</text>
  <rect x="410" y="115" width="80" height="30" rx="4" fill="#f39c12" opacity="0.15"/>
  <text x="450" y="134" font-family="Montserrat, sans-serif" font-size="10" fill="#f39c12" text-anchor="middle" font-weight="700">v2.0</text>
  <line x1="450" y1="160" x2="450" y2="190" stroke="#f39c12" stroke-width="1.5" opacity="0.5"/>
  <polygon points="445,188 450,198 455,188" fill="#f39c12" opacity="0.5"/>
  <!-- Distributor nodes -->
  <rect x="100" y="180" width="140" height="70" rx="8" fill="#2c3e50" stroke="#3498db" stroke-width="1.5"/>
  <circle cx="135" cy="215" r="15" fill="#3498db" opacity="0.2"/>
  <text x="135" y="219" font-family="sans-serif" font-size="12" fill="#3498db" text-anchor="middle">D1</text>
  <rect x="160" y="200" width="65" height="5" rx="3" fill="#fff" opacity="0.2"/>
  <rect x="160" y="212" width="55" height="5" rx="3" fill="#fff" opacity="0.15"/>
  <rect x="160" y="224" width="60" height="5" rx="3" fill="#3498db" opacity="0.3"/>
  <rect x="660" y="180" width="140" height="70" rx="8" fill="#2c3e50" stroke="#3498db" stroke-width="1.5"/>
  <circle cx="695" cy="215" r="15" fill="#3498db" opacity="0.2"/>
  <text x="695" y="219" font-family="sans-serif" font-size="12" fill="#3498db" text-anchor="middle">D2</text>
  <rect x="720" y="200" width="65" height="5" rx="3" fill="#fff" opacity="0.2"/>
  <rect x="720" y="212" width="55" height="5" rx="3" fill="#fff" opacity="0.15"/>
  <rect x="720" y="224" width="60" height="5" rx="3" fill="#3498db" opacity="0.3"/>
  <rect x="100" y="320" width="140" height="70" rx="8" fill="#2c3e50" stroke="#9b59b6" stroke-width="1.5"/>
  <circle cx="135" cy="355" r="15" fill="#9b59b6" opacity="0.2"/>
  <text x="135" y="359" font-family="sans-serif" font-size="12" fill="#9b59b6" text-anchor="middle">P1</text>
  <rect x="160" y="340" width="65" height="5" rx="3" fill="#fff" opacity="0.2"/>
  <rect x="160" y="352" width="55" height="5" rx="3" fill="#fff" opacity="0.15"/>
  <rect x="660" y="320" width="140" height="70" rx="8" fill="#2c3e50" stroke="#9b59b6" stroke-width="1.5"/>
  <circle cx="695" cy="355" r="15" fill="#9b59b6" opacity="0.2"/>
  <text x="695" y="359" font-family="sans-serif" font-size="12" fill="#9b59b6" text-anchor="middle">P2</text>
  <rect x="720" y="340" width="65" height="5" rx="3" fill="#fff" opacity="0.2"/>
  <rect x="720" y="352" width="55" height="5" rx="3" fill="#fff" opacity="0.15"/>
  <!-- Connection lines -->
  <line x1="240" y1="215" x2="380" y2="250" stroke="#3498db" stroke-width="1.5" opacity="0.4"/>
  <line x1="660" y1="215" x2="520" y2="250" stroke="#3498db" stroke-width="1.5" opacity="0.4"/>
  <line x1="240" y1="355" x2="380" y2="280" stroke="#9b59b6" stroke-width="1.5" opacity="0.4"/>
  <line x1="660" y1="355" x2="520" y2="280" stroke="#9b59b6" stroke-width="1.5" opacity="0.4"/>
  <!-- Email icons on lines -->
  <rect x="290" y="225" width="30" height="22" rx="3" fill="#3498db" opacity="0.5"/>
  <polyline points="292,227 305,238 318,227" fill="none" stroke="#fff" stroke-width="1.5" opacity="0.6"/>
  <rect x="570" y="225" width="30" height="22" rx="3" fill="#3498db" opacity="0.5"/>
  <polyline points="572,227 585,238 598,227" fill="none" stroke="#fff" stroke-width="1.5" opacity="0.6"/>
  <!-- Title -->
  <text x="450" y="460" font-family="Montserrat, Arial, sans-serif" font-size="28" fill="#ffffff" text-anchor="middle" font-weight="700">Orca</text>
  <text x="450" y="495" font-family="Lato, Arial, sans-serif" font-size="16" fill="#1abc9c" text-anchor="middle">Python · Django · Notifications</text>
</svg>