<svg xmlns="http://www.w3.org/2000/svg" width="900" height="650" viewBox="0 0 900 650">
  <defs>
    <linearGradient id="bg7" x1="0%" y1="0%" x2="100%" y2="100%">
      <stop offset="0%" style="stop-color:#1a1a2e"/>
      <stop offset="100%" style="stop-color:#2d1f3d"/>
    </linearGradient>
  </defs>
  <rect width="900" height="650" fill="url(#bg7)"/>
  <!-- Credit cards -->
  <rect x="120" y="120" width="220" height="140" rx="14" fill="#3498db" opacity="0.3" stroke="#3498db" stroke-width="1.5" transform="rotate(-5, 230, 190)"/>
  <rect x="130" y="145" width="60" height="40" rx="5" fill="#f39c12" opacity="0.3"/>
  <rect x="130" y="200" width="100" height="8" rx="4" fill="#fff" opacity="0.2"/>
  <rect x="130" y="215" width="80" height="8" rx="4" fill="#fff" opacity="0.15"/>
  <rect x="260" y="140" width="220" height="140" rx="14" fill="#e74c3c" opacity="0.3" stroke="#e74c3c" stroke-width="1.5" transform="rotate(3, 370, 210)"/>
  <rect x="270" y="165" width="60" height="40" rx="5" fill="#f39c12" opacity="0.3"/>
  <rect x="270" y="220" width="100" height="8" rx="4" fill="#fff" opacity="0.2"/>
  <rect x="270" y="235" width="80" height="8" rx="4" fill="#fff" opacity="0.15"/>
  <!-- Dashboard panel -->
  <rect x="500" y="100" width="320" height="380" rx="10" fill="#1e1e3a" stroke="#1abc9c" stroke-width="1.5"/>
  <rect x="500" y="100" width="320" height="35" rx="10" fill="#1abc9c" opacity="0.3"/>
  <text x="660" y="122" font-family="Montserrat, sans-serif" font-size="11" fill="#1abc9c" text-anchor="middle" font-weight="700">CC Dashboard</text>
  <!-- Card entries -->
  <rect x="520" y="150" width="280" height="55" rx="6" fill="#2c3e50" stroke="#3498db" stroke-width="1"/>
  <circle cx="545" cy="177" r="12" fill="#3498db" opacity="0.3"/>
  <text x="545" y="181" font-family="sans-serif" font-size="8" fill="#3498db" text-anchor="middle">VISA</text>
  <text x="575" y="170" font-family="Lato, sans-serif" font-size="10" fill="#fff" opacity="0.6">**** 4521</text>
  <text x="575" y="185" font-family="Lato, sans-serif" font-size="9" fill="#f39c12">Due: 5 days</text>
  <text x="760" y="175" font-family="Montserrat, sans-serif" font-size="12" fill="#e74c3c" text-anchor="end" font-weight="700">$2,450</text>
  <rect x="520" y="215" width="280" height="55" rx="6" fill="#2c3e50" stroke="#e74c3c" stroke-width="1"/>
  <circle cx="545" cy="242" r="12" fill="#e74c3c" opacity="0.3"/>
  <text x="545" y="246" font-family="sans-serif" font-size="7" fill="#e74c3c" text-anchor="middle">MC</text>
  <text x="575" y="235" font-family="Lato, sans-serif" font-size="10" fill="#fff" opacity="0.6">**** 8832</text>
  <text x="575" y="250" font-family="Lato, sans-serif" font-size="9" fill="#2ecc71">Due: 18 days</text>
  <text x="760" y="240" font-family="Montserrat, sans-serif" font-size="12" fill="#e74c3c" text-anchor="end" font-weight="700">$1,200</text>
  <rect x="520" y="280" width="280" height="55" rx="6" fill="#2c3e50" stroke="#9b59b6" stroke-width="1"/>
  <circle cx="545" cy="307" r="12" fill="#9b59b6" opacity="0.3"/>
  <text x="545" y="311" font-family="sans-serif" font-size="7" fill="#9b59b6" text-anchor="middle">AMEX</text>
  <text x="575" y="300" font-family="Lato, sans-serif" font-size="10" fill="#fff" opacity="0.6">**** 1190</text>
  <text x="575" y="315" font-family="Lato, sans-serif" font-size="9" fill="#2ecc71">Due: 25 days</text>
  <text x="760" y="305" font-family="Montserrat, sans-serif" font-size="12" fill="#e74c3c" text-anchor="end" font-weight="700">$890</text>
  <!-- Summary -->
  <rect x="520" y="350" width="280" height="50" rx="6" fill="#1abc9c" opacity="0.1" stroke="#1abc9c" stroke-width="1"/>
  <text x="540" y="375" font-family="Lato, sans-serif" font-size="10" fill="#fff" opacity="0.5">Total Outstanding:</text>
  <text x="780" y="380" font-family="Montserrat, sans-serif" font-size="18" fill="#1abc9c" text-anchor="end" font-weight="700">$4,540</text>
  <!-- Bell notification -->
  <rect x="520" y="410" width="280" height="50" rx="6" fill="#f39c12" opacity="0.1" stroke="#f39c12" stroke-width="1"/>
  <text x="660" y="440" font-family="Lato, sans-serif" font-size="10" fill="#f39c12" text-anchor="middle">Next payment due in 5 days</text>
  <!-- Email arrow -->
  <line x1="350" y1="300" x2="350" y2="380" stroke="#1abc9c" stroke-width="1.5" opacity="0.4"/>
  <line x1="350" y1="380" x2="500" y2="380" stroke="#1abc9c" stroke-width="1.5" opacity="0.4"/>
  <!-- Email icon -->
  <rect x="200" y="310" width="140" height="80" rx="6" fill="#2c3e50" stroke="#f39c12" stroke-width="1"/>
  <polyline points="205,315 270,355 335,315" fill="none" stroke="#f39c12" stroke-width="1.5" opacity="0.5"/>
  <text x="270" y="375" font-family="Lato, sans-serif" font-size="8" fill="#fff" text-anchor="middle" opacity="0.4">Bank Statement</text>
  <!-- Title -->
  <text x="450" y="540" font-family="Montserrat, Arial, sans-serif" font-size="28" fill="#ffffff" text-anchor="middle" font-weight="700">CC Bill Reminder</text>
  <text x="450" y="575" font-family="Lato, Arial, sans-serif" font-size="16" fill="#1abc9c" text-anchor="middle">Python · MySQL · Email Parsing</text>
</svg>