<svg xmlns="http://www.w3.org/2000/svg" width="900" height="650" viewBox="0 0 900 650">
  <defs>
    <linearGradient id="bg10" x1="0%" y1="0%" x2="100%" y2="100%">
      <stop offset="0%" style="stop-color:#1a1a2e"/>
      <stop offset="100%" style="stop-color:#1b2838"/>
    </linearGradient>
  </defs>
  <rect width="900" height="650" fill="url(#bg10)"/>
  <!-- Resume document (left) -->
  <rect x="100" y="100" width="250" height="350" rx="8" fill="#ffffff" opacity="0.95"/>
  <rect x="120" y="120" width="80" height="80" rx="40" fill="#3498db" opacity="0.15"/>
  <circle cx="160" cy="150" r="20" fill="#3498db" opacity="0.2"/>
  <text x="160" y="155" font-family="sans-serif" font-size="16" fill="#3498db" text-anchor="middle">&#9787;</text>
  <rect x="215" y="125" width="110" height="10" rx="3" fill="#2c3e50" opacity="0.6"/>
  <rect x="215" y="142" width="80" height="8" rx="3" fill="#3498db" opacity="0.4"/>
  <rect x="215" y="158" width="100" height="6" rx="3" fill="#ccc"/>
  <rect x="215" y="172" width="90" height="6" rx="3" fill="#ccc"/>
  <rect x="120" y="210" width="60" height="8" rx="3" fill="#2c3e50" opacity="0.5"/>
  <rect x="120" y="225" width="200" height="5" rx="3" fill="#ddd"/>
  <rect x="120" y="236" width="180" height="5" rx="3" fill="#ddd"/>
  <rect x="120" y="247" width="190" height="5" rx="3" fill="#ddd"/>
  <rect x="120" y="270" width="50" height="8" rx="3" fill="#2c3e50" opacity="0.5"/>
  <rect x="120" y="285" width="200" height="5" rx="3" fill="#ddd"/>
  <rect x="120" y="296" width="170" height="5" rx="3" fill="#ddd"/>
  <rect x="120" y="307" width="190" height="5" rx="3" fill="#ddd"/>
  <rect x="120" y="330" width="60" height="8" rx="3" fill="#2c3e50" opacity="0.5"/>
  <rect x="120" y="345" width="60" height="18" rx="9" fill="#1abc9c" opacity="0.3"/>
  <rect x="185" y="345" width="50" height="18" rx="9" fill="#3498db" opacity="0.3"/>
  <rect x="240" y="345" width="70" height="18" rx="9" fill="#9b59b6" opacity="0.3"/>
  <rect x="120" y="370" width="55" height="18" rx="9" fill="#f39c12" opacity="0.3"/>
  <rect x="180" y="370" width="65" height="18" rx="9" fill="#e74c3c" opacity="0.3"/>
  <!-- Scan arrow -->
  <line x1="370" y1="275" x2="460" y2="275" stroke="#1abc9c" stroke-width="2.5" opacity="0.6"/>
  <polygon points="455,268 470,275 455,282" fill="#1abc9c" opacity="0.6"/>
  <!-- API processing -->
  <rect x="470" y="200" width="120" height="150" rx="10" fill="#1abc9c" opacity="0.1" stroke="#1abc9c" stroke-width="2"/>
  <text x="530" y="250" font-family="Montserrat, sans-serif" font-size="12" fill="#1abc9c" text-anchor="middle" font-weight="700">SCAN</text>
  <text x="530" y="270" font-family="Lato, sans-serif" font-size="10" fill="#1abc9c" text-anchor="middle" opacity="0.6">API</text>
  <!-- Scanning lines animation -->
  <line x1="490" y1="300" x2="570" y2="300" stroke="#1abc9c" stroke-width="1" opacity="0.3"/>
  <line x1="490" y1="310" x2="570" y2="310" stroke="#1abc9c" stroke-width="1" opacity="0.3"/>
  <line x1="490" y1="320" x2="570" y2="320" stroke="#1abc9c" stroke-width="1" opacity="0.3"/>
  <!-- Arrow to results -->
  <line x1="590" y1="275" x2="640" y2="275" stroke="#f39c12" stroke-width="2.5" opacity="0.6"/>
  <polygon points="635,268 650,275 635,282" fill="#f39c12" opacity="0.6"/>
  <!-- Job description (right) -->
  <rect x="650" y="100" width="180" height="120" rx="8" fill="#2c3e50" stroke="#f39c12" stroke-width="1"/>
  <text x="740" y="125" font-family="Montserrat, sans-serif" font-size="10" fill="#f39c12" text-anchor="middle" font-weight="700">Job Description</text>
  <rect x="670" y="140" width="140" height="5" rx="3" fill="#fff" opacity="0.15"/>
  <rect x="670" y="152" width="120" height="5" rx="3" fill="#fff" opacity="0.1"/>
  <rect x="670" y="164" width="130" height="5" rx="3" fill="#fff" opacity="0.1"/>
  <rect x="670" y="176" width="100" height="5" rx="3" fill="#fff" opacity="0.1"/>
  <rect x="670" y="188" width="140" height="5" rx="3" fill="#fff" opacity="0.1"/>
  <!-- Match result -->
  <rect x="650" y="250" width="180" height="120" rx="10" fill="#2ecc71" opacity="0.1" stroke="#2ecc71" stroke-width="1.5"/>
  <text x="740" y="280" font-family="Montserrat, sans-serif" font-size="10" fill="#2ecc71" text-anchor="middle" font-weight="700">MATCH SCORE</text>
  <!-- Circular progress -->
  <circle cx="740" cy="330" r="30" fill="none" stroke="#2c3e50" stroke-width="6"/>
  <circle cx="740" cy="330" r="30" fill="none" stroke="#2ecc71" stroke-width="6" stroke-dasharray="155 188" stroke-linecap="round" transform="rotate(-90, 740, 330)"/>
  <text x="740" y="336" font-family="Montserrat, sans-serif" font-size="16" fill="#2ecc71" text-anchor="middle" font-weight="700">82%</text>
  <!-- Title -->
  <text x="450" y="520" font-family="Montserrat, Arial, sans-serif" font-size="28" fill="#ffffff" text-anchor="middle" font-weight="700">Resume Scanner</text>
  <text x="450" y="555" font-family="Lato, Arial, sans-serif" font-size="16" fill="#1abc9c" text-anchor="middle">Python · API Development · NLP</text>
</svg>