<svg xmlns="http://www.w3.org/2000/svg" width="900" height="650" viewBox="0 0 900 650">
  <defs>
    <linearGradient id="bg17" x1="0%" y1="0%" x2="100%" y2="100%">
      <stop offset="0%" style="stop-color:#0a192f"/>
      <stop offset="100%" style="stop-color:#172a45"/>
    </linearGradient>
  </defs>
  <rect width="900" height="650" fill="url(#bg17)"/>
  <!-- Healthcare cross -->
  <rect x="415" y="60" width="70" height="200" rx="8" fill="#e74c3c" opacity="0.15"/>
  <rect x="350" y="125" width="200" height="70" rx="8" fill="#e74c3c" opacity="0.15"/>
  <!-- Input documents (left) -->
  <rect x="80" y="150" width="160" height="200" rx="8" fill="#2c3e50" stroke="#e74c3c" stroke-width="1.5"/>
  <rect x="80" y="150" width="160" height="35" rx="8" fill="#e74c3c" opacity="0.8"/>
  <text x="160" y="173" font-family="Montserrat, sans-serif" font-size="12" fill="#fff" text-anchor="middle" font-weight="700">PDF FORM</text>
  <rect x="100" y="200" width="120" height="5" rx="3" fill="#fff" opacity="0.15"/>
  <rect x="100" y="215" width="100" height="5" rx="3" fill="#fff" opacity="0.15"/>
  <rect x="100" y="235" width="50" height="12" rx="3" fill="none" stroke="#fff" stroke-width="1" opacity="0.2"/>
  <rect x="160" y="235" width="50" height="12" rx="3" fill="none" stroke="#fff" stroke-width="1" opacity="0.2"/>
  <rect x="100" y="260" width="120" height="5" rx="3" fill="#fff" opacity="0.15"/>
  <rect x="100" y="280" width="120" height="30" rx="3" fill="none" stroke="#fff" stroke-width="1" opacity="0.2"/>
  <rect x="100" y="320" width="80" height="5" rx="3" fill="#fff" opacity="0.15"/>
  <!-- EDI file -->
  <rect x="80" y="380" width="160" height="120" rx="8" fill="#2c3e50" stroke="#f39c12" stroke-width="1.5"/>
  <rect x="80" y="380" width="160" height="30" rx="8" fill="#f39c12" opacity="0.7"/>
  <text x="160" y="400" font-family="Montserrat, sans-serif" font-size="11" fill="#fff" text-anchor="middle" font-weight="700">EDI 278</text>
  <text x="100" y="430" font-family="monospace" font-size="9" fill="#f39c12" opacity="0.5">ISA*00*</text>
  <text x="100" y="445" font-family="monospace" font-size="9" fill="#f39c12" opacity="0.5">GS*HI*</text>
  <text x="100" y="460" font-family="monospace" font-size="9" fill="#f39c12" opacity="0.5">ST*278*</text>
  <text x="100" y="475" font-family="monospace" font-size="9" fill="#f39c12" opacity="0.5">BHT*00*</text>
  <!-- Arrows to AI engine -->
  <line x1="240" y1="250" x2="340" y2="300" stroke="#e74c3c" stroke-width="1.5" opacity="0.5"/>
  <line x1="240" y1="440" x2="340" y2="350" stroke="#f39c12" stroke-width="1.5" opacity="0.5"/>
  <polygon points="335,295 345,300 335,305" fill="#e74c3c" opacity="0.5"/>
  <polygon points="335,345 345,350 335,355" fill="#f39c12" opacity="0.5"/>
  <!-- AI Processing Engine (center) -->
  <rect x="350" y="250" width="200" height="150" rx="12" fill="#1abc9c" opacity="0.1" stroke="#1abc9c" stroke-width="2"/>
  <rect x="370" y="270" width="70" height="40" rx="6" fill="#ff9900" opacity="0.3" stroke="#ff9900" stroke-width="1"/>
  <text x="405" y="295" font-family="Lato, sans-serif" font-size="10" fill="#ff9900" text-anchor="middle" font-weight="700">Textract</text>
  <rect x="460" y="270" width="70" height="40" rx="6" fill="#9b59b6" opacity="0.3" stroke="#9b59b6" stroke-width="1"/>
  <text x="495" y="295" font-family="Lato, sans-serif" font-size="10" fill="#9b59b6" text-anchor="middle" font-weight="700">Bedrock</text>
  <rect x="380" y="330" width="140" height="50" rx="6" fill="#3498db" opacity="0.2" stroke="#3498db" stroke-width="1"/>
  <text x="450" y="352" font-family="Lato, sans-serif" font-size="11" fill="#3498db" text-anchor="middle">Business Rules</text>
  <text x="450" y="368" font-family="Lato, sans-serif" font-size="10" fill="#3498db" text-anchor="middle" opacity="0.6">Engine</text>
  <text x="450" y="420" font-family="Montserrat, sans-serif" font-size="12" fill="#1abc9c" text-anchor="middle" font-weight="700" opacity="0.6">AI-POWERED</text>
  <!-- Output arrows -->
  <line x1="550" y1="290" x2="640" y2="200" stroke="#2ecc71" stroke-width="1.5" opacity="0.5"/>
  <line x1="550" y1="325" x2="640" y2="325" stroke="#f39c12" stroke-width="1.5" opacity="0.5"/>
  <line x1="550" y1="360" x2="640" y2="440" stroke="#e74c3c" stroke-width="1.5" opacity="0.5"/>
  <!-- Output decisions (right) -->
  <rect x="650" y="160" width="180" height="70" rx="10" fill="#2ecc71" opacity="0.2" stroke="#2ecc71" stroke-width="1.5"/>
  <circle cx="680" cy="195" r="14" fill="#2ecc71" opacity="0.6"/>
  <polyline points="673,195 678,201 688,189" fill="none" stroke="#fff" stroke-width="2.5" stroke-linecap="round" stroke-linejoin="round"/>
  <text x="750" y="190" font-family="Montserrat, sans-serif" font-size="13" fill="#2ecc71" text-anchor="middle" font-weight="700">APPROVED</text>
  <text x="750" y="210" font-family="Lato, sans-serif" font-size="10" fill="#fff" text-anchor="middle" opacity="0.5">Auto-processed</text>
  <rect x="650" y="290" width="180" height="70" rx="10" fill="#f39c12" opacity="0.2" stroke="#f39c12" stroke-width="1.5"/>
  <circle cx="680" cy="325" r="14" fill="#f39c12" opacity="0.6"/>
  <text x="680" y="331" font-family="Montserrat, sans-serif" font-size="16" fill="#fff" text-anchor="middle" font-weight="700">!</text>
  <text x="755" y="320" font-family="Montserrat, sans-serif" font-size="13" fill="#f39c12" text-anchor="middle" font-weight="700">REVIEW</text>
  <text x="755" y="340" font-family="Lato, sans-serif" font-size="10" fill="#fff" text-anchor="middle" opacity="0.5">Flagged for manual</text>
  <rect x="650" y="420" width="180" height="70" rx="10" fill="#3498db" opacity="0.2" stroke="#3498db" stroke-width="1.5"/>
  <circle cx="680" cy="455" r="14" fill="#3498db" opacity="0.6"/>
  <text x="680" y="461" font-family="Montserrat, sans-serif" font-size="14" fill="#fff" text-anchor="middle" font-weight="700">-</text>
  <text x="755" y="450" font-family="Montserrat, sans-serif" font-size="13" fill="#3498db" text-anchor="middle" font-weight="700">NO AUTH</text>
  <text x="755" y="470" font-family="Lato, sans-serif" font-size="10" fill="#fff" text-anchor="middle" opacity="0.5">Not required</text>
  <!-- Title -->
  <text x="450" y="555" font-family="Montserrat, Arial, sans-serif" font-size="28" fill="#ffffff" text-anchor="middle" font-weight="700">SmartAuth</text>
  <text x="450" y="590" font-family="Lato, Arial, sans-serif" font-size="16" fill="#1abc9c" text-anchor="middle">FastAPI · React · AWS Bedrock · Textract</text>
</svg>