<svg xmlns="http://www.w3.org/2000/svg" width="900" height="650" viewBox="0 0 900 650">
  <defs>
    <linearGradient id="bg1" x1="0%" y1="0%" x2="100%" y2="100%">
      <stop offset="0%" style="stop-color:#1a1a2e"/>
      <stop offset="100%" style="stop-color:#16213e"/>
    </linearGradient>
  </defs>
  <rect width="900" height="650" fill="url(#bg1)"/>
  <!-- Browser window -->
  <rect x="120" y="80" width="660" height="420" rx="12" fill="#1e1e3a" stroke="#1abc9c" stroke-width="1.5"/>
  <rect x="120" y="80" width="660" height="40" rx="12" fill="#2c3e50"/>
  <circle cx="150" cy="100" r="7" fill="#e74c3c" opacity="0.8"/>
  <circle cx="172" cy="100" r="7" fill="#f39c12" opacity="0.8"/>
  <circle cx="194" cy="100" r="7" fill="#2ecc71" opacity="0.8"/>
  <rect x="250" y="90" width="400" height="20" rx="10" fill="#1a1a2e"/>
  <text x="450" y="104" font-family="Lato, sans-serif" font-size="10" fill="#1abc9c" text-anchor="middle">easterscience.com</text>
  <!-- Nav bar -->
  <rect x="140" y="130" width="640" height="35" fill="#1abc9c" opacity="0.2"/>
  <text x="200" y="152" font-family="Montserrat, sans-serif" font-size="11" fill="#1abc9c" font-weight="700">EASTER SCIENCE</text>
  <text x="550" y="152" font-family="Lato, sans-serif" font-size="10" fill="#fff" opacity="0.5">Papers</text>
  <text x="620" y="152" font-family="Lato, sans-serif" font-size="10" fill="#fff" opacity="0.5">Q&amp;A</text>
  <text x="680" y="152" font-family="Lato, sans-serif" font-size="10" fill="#fff" opacity="0.5">News</text>
  <text x="740" y="152" font-family="Lato, sans-serif" font-size="10" fill="#fff" opacity="0.5">Quiz</text>
  <!-- Content cards -->
  <rect x="160" y="185" width="190" height="130" rx="8" fill="#2c3e50" stroke="#1abc9c" stroke-width="1" opacity="0.8"/>
  <rect x="170" y="195" width="170" height="60" rx="4" fill="#1abc9c" opacity="0.15"/>
  <text x="255" y="230" font-family="Lato, sans-serif" font-size="11" fill="#1abc9c" text-anchor="middle">Exam Papers</text>
  <rect x="170" y="265" width="120" height="6" rx="3" fill="#fff" opacity="0.15"/>
  <rect x="170" y="278" width="150" height="6" rx="3" fill="#fff" opacity="0.1"/>
  <rect x="170" y="291" width="100" height="6" rx="3" fill="#fff" opacity="0.1"/>
  <rect x="370" y="185" width="190" height="130" rx="8" fill="#2c3e50" stroke="#3498db" stroke-width="1" opacity="0.8"/>
  <rect x="380" y="195" width="170" height="60" rx="4" fill="#3498db" opacity="0.15"/>
  <text x="465" y="230" font-family="Lato, sans-serif" font-size="11" fill="#3498db" text-anchor="middle">Q&amp;A Forum</text>
  <rect x="380" y="265" width="120" height="6" rx="3" fill="#fff" opacity="0.15"/>
  <rect x="380" y="278" width="150" height="6" rx="3" fill="#fff" opacity="0.1"/>
  <rect x="380" y="291" width="100" height="6" rx="3" fill="#fff" opacity="0.1"/>
  <rect x="580" y="185" width="190" height="130" rx="8" fill="#2c3e50" stroke="#f39c12" stroke-width="1" opacity="0.8"/>
  <rect x="590" y="195" width="170" height="60" rx="4" fill="#f39c12" opacity="0.15"/>
  <text x="675" y="230" font-family="Lato, sans-serif" font-size="11" fill="#f39c12" text-anchor="middle">Tech News</text>
  <rect x="590" y="265" width="120" height="6" rx="3" fill="#fff" opacity="0.15"/>
  <rect x="590" y="278" width="150" height="6" rx="3" fill="#fff" opacity="0.1"/>
  <rect x="590" y="291" width="100" height="6" rx="3" fill="#fff" opacity="0.1"/>
  <!-- Bottom cards -->
  <rect x="160" y="335" width="290" height="100" rx="8" fill="#2c3e50" stroke="#9b59b6" stroke-width="1" opacity="0.8"/>
  <rect x="170" y="345" width="80" height="80" rx="4" fill="#9b59b6" opacity="0.15"/>
  <text x="210" y="390" font-family="Lato, sans-serif" font-size="9" fill="#9b59b6" text-anchor="middle">CODE</text>
  <rect x="265" y="355" width="160" height="6" rx="3" fill="#fff" opacity="0.15"/>
  <rect x="265" y="370" width="140" height="6" rx="3" fill="#fff" opacity="0.1"/>
  <rect x="265" y="385" width="170" height="6" rx="3" fill="#fff" opacity="0.1"/>
  <rect x="265" y="400" width="100" height="6" rx="3" fill="#fff" opacity="0.1"/>
  <rect x="470" y="335" width="290" height="100" rx="8" fill="#2c3e50" stroke="#e74c3c" stroke-width="1" opacity="0.8"/>
  <rect x="480" y="345" width="80" height="80" rx="4" fill="#e74c3c" opacity="0.15"/>
  <text x="520" y="390" font-family="Lato, sans-serif" font-size="9" fill="#e74c3c" text-anchor="middle">QUIZ</text>
  <rect x="575" y="355" width="160" height="6" rx="3" fill="#fff" opacity="0.15"/>
  <rect x="575" y="370" width="140" height="6" rx="3" fill="#fff" opacity="0.1"/>
  <rect x="575" y="385" width="170" height="6" rx="3" fill="#fff" opacity="0.1"/>
  <!-- Title -->
  <text x="450" y="555" font-family="Montserrat, Arial, sans-serif" font-size="28" fill="#ffffff" text-anchor="middle" font-weight="700">Easter Science</text>
  <text x="450" y="590" font-family="Lato, Arial, sans-serif" font-size="16" fill="#1abc9c" text-anchor="middle">HTML5 · CSS3 · WordPress · JavaScript</text>
</svg>